<svg xmlns="http://www.w3.org/2000/svg" xmlns:xlink="http://www.w3.org/1999/xlink" width="2000" zoomAndPan="magnify" viewBox="0 0 1500 1499.999933" height="2000" preserveAspectRatio="xMidYMid meet" version="1.0"><defs><clipPath id="e0b9a5fc15"><path d="M 165 39 L 1335 39 L 1335 1500 L 165 1500 Z M 165 39 " clip-rule="nonzero"/></clipPath><clipPath id="5840164f0a"><path d="M 485.527344 1100.1875 L 631.015625 1100.1875 L 631.015625 1245.675781 L 485.527344 1245.675781 Z M 485.527344 1100.1875 " clip-rule="nonzero"/></clipPath><clipPath id="f246e61c7c"><path d="M 558.269531 1100.1875 C 518.09375 1100.1875 485.527344 1132.757812 485.527344 1172.933594 C 485.527344 1213.109375 518.09375 1245.675781 558.269531 1245.675781 C 598.445312 1245.675781 631.015625 1213.109375 631.015625 1172.933594 C 631.015625 1132.757812 598.445312 1100.1875 558.269531 1100.1875 Z M 558.269531 1100.1875 " clip-rule="nonzero"/></clipPath><clipPath id="e9aac3deeb"><path d="M 0.527344 0.1875 L 146.015625 0.1875 L 146.015625 145.675781 L 0.527344 145.675781 Z M 0.527344 0.1875 " clip-rule="nonzero"/></clipPath><clipPath id="ba0a7e2325"><path d="M 73.269531 0.1875 C 33.09375 0.1875 0.527344 32.757812 0.527344 72.933594 C 0.527344 113.109375 33.09375 145.675781 73.269531 145.675781 C 113.445312 145.675781 146.015625 113.109375 146.015625 72.933594 C 146.015625 32.757812 113.445312 0.1875 73.269531 0.1875 Z M 73.269531 0.1875 " clip-rule="nonzero"/></clipPath><clipPath id="4171284998"><rect x="0" width="147" y="0" height="146"/></clipPath></defs><g clip-path="url(#e0b9a5fc15)"><path fill="#afb1f8" d="M 953.769531 53.355469 C 951.472656 67.128906 951.472656 636.390625 951.472656 636.390625 L 1327.921875 1345.671875 C 1327.921875 1345.671875 1350.871094 1386.988281 1314.148438 1437.488281 C 1277.421875 1487.988281 1247.582031 1499.46875 1247.582031 1499.46875 L 242.1875 1492.578125 C 242.1875 1492.578125 152.667969 1453.558594 166.441406 1352.558594 C 180.210938 1251.5625 545.183594 615.734375 545.183594 615.734375 L 552.070312 39.585938 Z M 953.769531 53.355469 " fill-opacity="1" fill-rule="nonzero"/></g><path fill="#ffffff" d="M 1081.78125 996.757812 C 1081.78125 996.757812 902.503906 650.929688 902.503906 641.75 C 902.503906 632.566406 917.804688 54.125 917.804688 54.125 L 584.207031 60.246094 L 578.085938 623.386719 L 483.207031 819.261719 L 697.445312 1140.621094 L 908.625 1226.316406 L 1104.5 1189.589844 L 1113.683594 1076.351562 Z M 1081.78125 996.757812 " fill-opacity="1" fill-rule="nonzero"/><path fill="#6366f1" d="M 298.390625 1443.179688 L 1179.914062 1449.21875 C 1179.914062 1449.21875 1206.078125 1439.15625 1238.277344 1394.875 C 1270.480469 1350.597656 1250.351562 1314.375 1250.351562 1314.375 L 1081.78125 996.753906 C 1051.628906 1035.476562 1000.945312 1066.523438 910.21875 1064.808594 C 730.558594 1061.417969 702.203125 843.921875 493.371094 799.382812 C 398.386719 969.179688 240.390625 1258.691406 231.972656 1320.410156 C 219.898438 1408.964844 298.390625 1443.171875 298.390625 1443.171875 Z M 298.390625 1443.179688 " fill-opacity="1" fill-rule="nonzero"/><path fill="#afb1f8" d="M 996.234375 94.675781 L 505.015625 94.675781 C 503.472656 94.675781 501.9375 94.597656 500.402344 94.449219 C 498.867188 94.296875 497.347656 94.070312 495.835938 93.769531 C 494.324219 93.46875 492.828125 93.09375 491.355469 92.648438 C 489.878906 92.199219 488.429688 91.683594 487.007812 91.09375 C 485.582031 90.503906 484.191406 89.84375 482.832031 89.117188 C 481.472656 88.390625 480.152344 87.601562 478.871094 86.746094 C 477.589844 85.886719 476.355469 84.972656 475.164062 83.992188 C 473.972656 83.015625 472.832031 81.980469 471.742188 80.890625 C 470.652344 79.800781 469.617188 78.660156 468.640625 77.46875 C 467.664062 76.28125 466.746094 75.042969 465.890625 73.761719 C 465.03125 72.480469 464.242188 71.160156 463.515625 69.800781 C 462.789062 68.441406 462.128906 67.050781 461.539062 65.625 C 460.949219 64.203125 460.433594 62.753906 459.984375 61.277344 C 459.539062 59.804688 459.164062 58.308594 458.863281 56.800781 C 458.5625 55.289062 458.335938 53.765625 458.183594 52.230469 C 458.035156 50.699219 457.957031 49.160156 457.957031 47.617188 C 457.957031 46.078125 458.035156 44.539062 458.183594 43.007812 C 458.335938 41.472656 458.5625 39.949219 458.863281 38.4375 C 459.164062 36.925781 459.539062 35.433594 459.984375 33.960938 C 460.433594 32.484375 460.949219 31.035156 461.539062 29.613281 C 462.128906 28.1875 462.789062 26.796875 463.515625 25.4375 C 464.242188 24.078125 465.03125 22.757812 465.890625 21.476562 C 466.746094 20.195312 467.664062 18.957031 468.640625 17.765625 C 469.617188 16.574219 470.652344 15.433594 471.742188 14.34375 C 472.832031 13.253906 473.972656 12.222656 475.164062 11.246094 C 476.355469 10.265625 477.589844 9.351562 478.871094 8.492188 C 480.152344 7.636719 481.472656 6.847656 482.832031 6.121094 C 484.191406 5.394531 485.582031 4.734375 487.007812 4.144531 C 488.429688 3.554688 489.878906 3.035156 491.355469 2.589844 C 492.828125 2.140625 494.324219 1.769531 495.835938 1.46875 C 497.347656 1.167969 498.867188 0.941406 500.402344 0.789062 C 501.9375 0.640625 503.472656 0.5625 505.015625 0.5625 L 996.234375 0.5625 C 997.773438 0.5625 999.3125 0.640625 1000.847656 0.789062 C 1002.378906 0.941406 1003.902344 1.167969 1005.414062 1.46875 C 1006.925781 1.769531 1008.417969 2.140625 1009.894531 2.589844 C 1011.367188 3.035156 1012.816406 3.554688 1014.242188 4.144531 C 1015.664062 4.734375 1017.054688 5.394531 1018.414062 6.121094 C 1019.773438 6.847656 1021.09375 7.636719 1022.375 8.492188 C 1023.65625 9.351562 1024.894531 10.265625 1026.085938 11.246094 C 1027.277344 12.222656 1028.417969 13.253906 1029.507812 14.34375 C 1030.597656 15.433594 1031.628906 16.574219 1032.609375 17.765625 C 1033.585938 18.957031 1034.503906 20.195312 1035.359375 21.476562 C 1036.214844 22.757812 1037.007812 24.078125 1037.734375 25.4375 C 1038.460938 26.796875 1039.117188 28.1875 1039.707031 29.613281 C 1040.296875 31.035156 1040.816406 32.484375 1041.261719 33.960938 C 1041.710938 35.433594 1042.085938 36.925781 1042.386719 38.4375 C 1042.6875 39.949219 1042.910156 41.472656 1043.0625 43.007812 C 1043.214844 44.539062 1043.289062 46.078125 1043.289062 47.617188 C 1043.289062 49.160156 1043.214844 50.699219 1043.0625 52.230469 C 1042.910156 53.765625 1042.6875 55.289062 1042.386719 56.800781 C 1042.085938 58.308594 1041.710938 59.804688 1041.261719 61.277344 C 1040.816406 62.753906 1040.296875 64.203125 1039.707031 65.625 C 1039.117188 67.050781 1038.460938 68.441406 1037.734375 69.800781 C 1037.007812 71.160156 1036.214844 72.480469 1035.359375 73.761719 C 1034.503906 75.042969 1033.585938 76.28125 1032.609375 77.46875 C 1031.628906 78.660156 1030.597656 79.800781 1029.507812 80.890625 C 1028.417969 81.980469 1027.277344 83.015625 1026.085938 83.992188 C 1024.894531 84.972656 1023.65625 85.886719 1022.375 86.746094 C 1021.09375 87.601562 1019.773438 88.390625 1018.414062 89.117188 C 1017.054688 89.84375 1015.664062 90.503906 1014.242188 91.09375 C 1012.816406 91.683594 1011.367188 92.199219 1009.894531 92.648438 C 1008.417969 93.09375 1006.925781 93.46875 1005.414062 93.769531 C 1003.902344 94.070312 1002.378906 94.296875 1000.847656 94.449219 C 999.3125 94.597656 997.773438 94.675781 996.234375 94.675781 Z M 996.234375 94.675781 " fill-opacity="1" fill-rule="nonzero"/><path fill="#9295ff" d="M 648.476562 1175.8125 C 648.476562 1177.238281 648.441406 1178.664062 648.375 1180.089844 C 648.304688 1181.515625 648.199219 1182.941406 648.058594 1184.359375 C 647.917969 1185.78125 647.742188 1187.199219 647.535156 1188.609375 C 647.324219 1190.023438 647.082031 1191.429688 646.800781 1192.828125 C 646.523438 1194.226562 646.210938 1195.621094 645.863281 1197.003906 C 645.515625 1198.390625 645.136719 1199.765625 644.722656 1201.132812 C 644.308594 1202.496094 643.859375 1203.851562 643.378906 1205.195312 C 642.898438 1206.542969 642.382812 1207.871094 641.839844 1209.191406 C 641.292969 1210.511719 640.714844 1211.816406 640.105469 1213.105469 C 639.492188 1214.394531 638.851562 1215.671875 638.179688 1216.929688 C 637.503906 1218.1875 636.800781 1219.429688 636.066406 1220.65625 C 635.335938 1221.878906 634.570312 1223.085938 633.777344 1224.273438 C 632.984375 1225.457031 632.164062 1226.625 631.3125 1227.773438 C 630.460938 1228.917969 629.585938 1230.042969 628.679688 1231.148438 C 627.773438 1232.25 626.839844 1233.332031 625.882812 1234.390625 C 624.921875 1235.445312 623.941406 1236.480469 622.929688 1237.488281 C 621.921875 1238.5 620.886719 1239.484375 619.828125 1240.441406 C 618.773438 1241.402344 617.691406 1242.332031 616.585938 1243.238281 C 615.484375 1244.144531 614.359375 1245.023438 613.210938 1245.871094 C 612.066406 1246.722656 610.898438 1247.542969 609.710938 1248.339844 C 608.523438 1249.132812 607.320312 1249.894531 606.09375 1250.628906 C 604.871094 1251.363281 603.628906 1252.066406 602.371094 1252.738281 C 601.109375 1253.410156 599.835938 1254.054688 598.546875 1254.664062 C 597.253906 1255.273438 595.949219 1255.851562 594.632812 1256.398438 C 593.3125 1256.945312 591.980469 1257.457031 590.636719 1257.941406 C 589.292969 1258.421875 587.9375 1258.867188 586.570312 1259.28125 C 585.207031 1259.695312 583.832031 1260.078125 582.445312 1260.425781 C 581.0625 1260.769531 579.667969 1261.082031 578.269531 1261.363281 C 576.867188 1261.640625 575.460938 1261.886719 574.050781 1262.09375 C 572.636719 1262.304688 571.222656 1262.480469 569.800781 1262.617188 C 568.378906 1262.757812 566.957031 1262.863281 565.53125 1262.933594 C 564.105469 1263.003906 562.679688 1263.039062 561.25 1263.039062 C 559.824219 1263.039062 558.398438 1263.003906 556.972656 1262.933594 C 555.546875 1262.863281 554.121094 1262.757812 552.703125 1262.617188 C 551.28125 1262.480469 549.863281 1262.304688 548.453125 1262.09375 C 547.039062 1261.886719 545.632812 1261.640625 544.234375 1261.363281 C 542.832031 1261.082031 541.441406 1260.769531 540.058594 1260.425781 C 538.671875 1260.078125 537.296875 1259.695312 535.929688 1259.28125 C 534.5625 1258.867188 533.210938 1258.421875 531.863281 1257.9375 C 530.519531 1257.457031 529.191406 1256.945312 527.871094 1256.398438 C 526.550781 1255.851562 525.246094 1255.273438 523.957031 1254.664062 C 522.667969 1254.054688 521.390625 1253.410156 520.132812 1252.738281 C 518.875 1252.066406 517.632812 1251.363281 516.40625 1250.628906 C 515.183594 1249.894531 513.976562 1249.132812 512.789062 1248.339844 C 511.601562 1247.542969 510.4375 1246.722656 509.289062 1245.871094 C 508.144531 1245.023438 507.019531 1244.144531 505.914062 1243.238281 C 504.8125 1242.332031 503.730469 1241.402344 502.671875 1240.441406 C 501.613281 1239.484375 500.582031 1238.5 499.570312 1237.488281 C 498.5625 1236.480469 497.578125 1235.445312 496.621094 1234.390625 C 495.660156 1233.332031 494.730469 1232.25 493.824219 1231.148438 C 492.917969 1230.042969 492.039062 1228.917969 491.191406 1227.773438 C 490.339844 1226.625 489.515625 1225.457031 488.722656 1224.273438 C 487.929688 1223.085938 487.167969 1221.878906 486.433594 1220.65625 C 485.699219 1219.429688 484.996094 1218.1875 484.324219 1216.929688 C 483.652344 1215.671875 483.007812 1214.394531 482.398438 1213.105469 C 481.789062 1211.816406 481.210938 1210.511719 480.664062 1209.191406 C 480.117188 1207.871094 479.605469 1206.542969 479.121094 1205.195312 C 478.640625 1203.851562 478.195312 1202.496094 477.78125 1201.132812 C 477.367188 1199.765625 476.984375 1198.390625 476.636719 1197.003906 C 476.292969 1195.621094 475.976562 1194.226562 475.699219 1192.828125 C 475.421875 1191.429688 475.175781 1190.023438 474.96875 1188.609375 C 474.757812 1187.199219 474.582031 1185.78125 474.445312 1184.359375 C 474.304688 1182.941406 474.199219 1181.515625 474.128906 1180.089844 C 474.058594 1178.664062 474.023438 1177.238281 474.023438 1175.8125 C 474.023438 1174.382812 474.058594 1172.957031 474.128906 1171.53125 C 474.199219 1170.105469 474.304688 1168.683594 474.445312 1167.261719 C 474.582031 1165.839844 474.757812 1164.425781 474.96875 1163.011719 C 475.175781 1161.601562 475.421875 1160.195312 475.699219 1158.792969 C 475.976562 1157.394531 476.292969 1156 476.636719 1154.617188 C 476.984375 1153.230469 477.367188 1151.855469 477.78125 1150.492188 C 478.195312 1149.125 478.640625 1147.769531 479.121094 1146.425781 C 479.605469 1145.082031 480.117188 1143.75 480.664062 1142.429688 C 481.210938 1141.113281 481.789062 1139.808594 482.398438 1138.515625 C 483.007812 1137.226562 483.652344 1135.953125 484.324219 1134.691406 C 484.996094 1133.433594 485.699219 1132.191406 486.433594 1130.96875 C 487.167969 1129.742188 487.929688 1128.539062 488.722656 1127.351562 C 489.515625 1126.164062 490.339844 1124.996094 491.191406 1123.851562 C 492.039062 1122.703125 492.917969 1121.578125 493.824219 1120.476562 C 494.730469 1119.371094 495.660156 1118.289062 496.621094 1117.234375 C 497.578125 1116.175781 498.5625 1115.140625 499.570312 1114.132812 C 500.582031 1113.121094 501.613281 1112.140625 502.671875 1111.179688 C 503.730469 1110.222656 504.8125 1109.289062 505.914062 1108.382812 C 507.019531 1107.476562 508.144531 1106.601562 509.289062 1105.75 C 510.4375 1104.898438 511.601562 1104.078125 512.789062 1103.285156 C 513.976562 1102.492188 515.183594 1101.726562 516.40625 1100.992188 C 517.632812 1100.261719 518.875 1099.554688 520.132812 1098.882812 C 521.390625 1098.210938 522.667969 1097.570312 523.957031 1096.957031 C 525.246094 1096.347656 526.550781 1095.769531 527.871094 1095.222656 C 529.191406 1094.675781 530.519531 1094.164062 531.863281 1093.683594 C 533.210938 1093.203125 534.5625 1092.753906 535.929688 1092.339844 C 537.296875 1091.925781 538.671875 1091.546875 540.058594 1091.199219 C 541.441406 1090.851562 542.832031 1090.539062 544.234375 1090.261719 C 545.632812 1089.980469 547.039062 1089.738281 548.453125 1089.527344 C 549.863281 1089.320312 551.28125 1089.144531 552.703125 1089.003906 C 554.121094 1088.863281 555.546875 1088.757812 556.972656 1088.6875 C 558.398438 1088.621094 559.824219 1088.585938 561.25 1088.585938 C 562.679688 1088.585938 564.105469 1088.621094 565.53125 1088.6875 C 566.957031 1088.757812 568.378906 1088.863281 569.800781 1089.003906 C 571.222656 1089.144531 572.636719 1089.320312 574.050781 1089.527344 C 575.460938 1089.738281 576.867188 1089.980469 578.269531 1090.261719 C 579.667969 1090.539062 581.0625 1090.851562 582.445312 1091.199219 C 583.832031 1091.546875 585.207031 1091.925781 586.570312 1092.339844 C 587.9375 1092.753906 589.292969 1093.203125 590.636719 1093.683594 C 591.980469 1094.164062 593.3125 1094.675781 594.632812 1095.222656 C 595.949219 1095.769531 597.253906 1096.347656 598.546875 1096.957031 C 599.835938 1097.570312 601.109375 1098.210938 602.371094 1098.882812 C 603.628906 1099.558594 604.871094 1100.261719 606.09375 1100.992188 C 607.320312 1101.726562 608.523438 1102.492188 609.710938 1103.285156 C 610.898438 1104.078125 612.066406 1104.898438 613.210938 1105.75 C 614.359375 1106.601562 615.484375 1107.476562 616.585938 1108.382812 C 617.691406 1109.289062 618.773438 1110.222656 619.828125 1111.179688 C 620.886719 1112.140625 621.921875 1113.121094 622.929688 1114.132812 C 623.9375 1115.140625 624.921875 1116.175781 625.882812 1117.234375 C 626.839844 1118.289062 627.773438 1119.371094 628.679688 1120.476562 C 629.585938 1121.578125 630.460938 1122.703125 631.3125 1123.851562 C 632.164062 1124.996094 632.984375 1126.164062 633.777344 1127.351562 C 634.570312 1128.539062 635.335938 1129.742188 636.066406 1130.96875 C 636.800781 1132.191406 637.503906 1133.433594 638.179688 1134.691406 C 638.851562 1135.953125 639.492188 1137.226562 640.105469 1138.515625 C 640.714844 1139.808594 641.292969 1141.113281 641.839844 1142.429688 C 642.382812 1143.75 642.898438 1145.082031 643.378906 1146.425781 C 643.859375 1147.769531 644.308594 1149.125 644.722656 1150.492188 C 645.136719 1151.855469 645.515625 1153.230469 645.863281 1154.617188 C 646.210938 1156 646.523438 1157.394531 646.800781 1158.792969 C 647.082031 1160.195312 647.324219 1161.601562 647.535156 1163.011719 C 647.742188 1164.425781 647.917969 1165.839844 648.058594 1167.261719 C 648.199219 1168.683594 648.304688 1170.105469 648.375 1171.53125 C 648.441406 1172.957031 648.476562 1174.382812 648.476562 1175.8125 Z M 648.476562 1175.8125 " fill-opacity="1" fill-rule="nonzero"/><path fill="#9295ff" d="M 919.335938 1334.195312 C 919.335938 1335.324219 919.277344 1336.449219 919.167969 1337.570312 C 919.058594 1338.695312 918.890625 1339.808594 918.671875 1340.914062 C 918.453125 1342.019531 918.179688 1343.113281 917.851562 1344.191406 C 917.523438 1345.269531 917.144531 1346.332031 916.714844 1347.375 C 916.28125 1348.414062 915.800781 1349.433594 915.269531 1350.425781 C 914.738281 1351.421875 914.15625 1352.386719 913.53125 1353.324219 C 912.90625 1354.261719 912.234375 1355.167969 911.519531 1356.039062 C 910.804688 1356.910156 910.046875 1357.746094 909.25 1358.542969 C 908.453125 1359.339844 907.617188 1360.097656 906.746094 1360.8125 C 905.875 1361.527344 904.96875 1362.199219 904.03125 1362.824219 C 903.09375 1363.453125 902.128906 1364.03125 901.132812 1364.5625 C 900.140625 1365.09375 899.121094 1365.574219 898.078125 1366.007812 C 897.039062 1366.4375 895.976562 1366.816406 894.898438 1367.144531 C 893.820312 1367.472656 892.726562 1367.746094 891.621094 1367.964844 C 890.515625 1368.1875 889.398438 1368.351562 888.277344 1368.460938 C 887.15625 1368.574219 886.03125 1368.628906 884.902344 1368.628906 C 883.777344 1368.628906 882.652344 1368.574219 881.527344 1368.460938 C 880.40625 1368.351562 879.292969 1368.1875 878.1875 1367.964844 C 877.082031 1367.746094 875.988281 1367.472656 874.910156 1367.144531 C 873.828125 1366.816406 872.769531 1366.4375 871.726562 1366.007812 C 870.683594 1365.574219 869.667969 1365.09375 868.671875 1364.5625 C 867.679688 1364.03125 866.710938 1363.453125 865.773438 1362.824219 C 864.835938 1362.199219 863.933594 1361.527344 863.0625 1360.8125 C 862.1875 1360.097656 861.355469 1359.339844 860.558594 1358.542969 C 859.757812 1357.746094 859.003906 1356.910156 858.289062 1356.039062 C 857.574219 1355.167969 856.902344 1354.261719 856.273438 1353.324219 C 855.648438 1352.386719 855.070312 1351.421875 854.539062 1350.425781 C 854.007812 1349.433594 853.523438 1348.414062 853.09375 1347.375 C 852.660156 1346.332031 852.28125 1345.269531 851.953125 1344.191406 C 851.628906 1343.113281 851.355469 1342.019531 851.132812 1340.914062 C 850.914062 1339.808594 850.75 1338.695312 850.636719 1337.570312 C 850.527344 1336.449219 850.472656 1335.324219 850.472656 1334.195312 C 850.472656 1333.070312 850.527344 1331.945312 850.636719 1330.824219 C 850.75 1329.699219 850.914062 1328.585938 851.132812 1327.480469 C 851.355469 1326.375 851.628906 1325.28125 851.953125 1324.203125 C 852.28125 1323.125 852.660156 1322.0625 853.09375 1321.019531 C 853.523438 1319.980469 854.007812 1318.960938 854.539062 1317.964844 C 855.070312 1316.972656 855.648438 1316.007812 856.273438 1315.066406 C 856.902344 1314.128906 857.574219 1313.226562 858.289062 1312.355469 C 859.003906 1311.484375 859.757812 1310.648438 860.558594 1309.851562 C 861.355469 1309.054688 862.1875 1308.296875 863.0625 1307.582031 C 863.933594 1306.867188 864.835938 1306.195312 865.773438 1305.570312 C 866.710938 1304.941406 867.679688 1304.363281 868.671875 1303.832031 C 869.667969 1303.300781 870.683594 1302.820312 871.726562 1302.386719 C 872.769531 1301.957031 873.828125 1301.574219 874.910156 1301.25 C 875.988281 1300.921875 877.082031 1300.648438 878.1875 1300.429688 C 879.292969 1300.207031 880.40625 1300.042969 881.527344 1299.933594 C 882.652344 1299.820312 883.777344 1299.765625 884.902344 1299.765625 C 886.03125 1299.765625 887.15625 1299.820312 888.277344 1299.933594 C 889.402344 1300.042969 890.515625 1300.207031 891.621094 1300.429688 C 892.726562 1300.648438 893.820312 1300.921875 894.898438 1301.25 C 895.976562 1301.574219 897.039062 1301.957031 898.078125 1302.386719 C 899.121094 1302.820312 900.140625 1303.300781 901.132812 1303.832031 C 902.128906 1304.363281 903.09375 1304.941406 904.03125 1305.570312 C 904.96875 1306.195312 905.875 1306.867188 906.746094 1307.582031 C 907.617188 1308.296875 908.453125 1309.054688 909.25 1309.851562 C 910.046875 1310.648438 910.804688 1311.484375 911.519531 1312.355469 C 912.234375 1313.226562 912.90625 1314.128906 913.53125 1315.066406 C 914.15625 1316.007812 914.738281 1316.972656 915.269531 1317.964844 C 915.800781 1318.960938 916.28125 1319.980469 916.714844 1321.019531 C 917.144531 1322.0625 917.523438 1323.125 917.851562 1324.203125 C 918.179688 1325.28125 918.453125 1326.375 918.671875 1327.480469 C 918.890625 1328.585938 919.058594 1329.699219 919.167969 1330.824219 C 919.277344 1331.945312 919.335938 1333.070312 919.335938 1334.195312 Z M 919.335938 1334.195312 " fill-opacity="1" fill-rule="nonzero"/><path fill="#9295ff" d="M 1102.96875 1242.378906 C 1102.96875 1243.65625 1102.90625 1244.933594 1102.78125 1246.203125 C 1102.65625 1247.476562 1102.46875 1248.738281 1102.21875 1249.992188 C 1101.96875 1251.246094 1101.660156 1252.484375 1101.289062 1253.707031 C 1100.917969 1254.929688 1100.488281 1256.132812 1100 1257.3125 C 1099.511719 1258.492188 1098.964844 1259.648438 1098.363281 1260.773438 C 1097.757812 1261.902344 1097.101562 1262.996094 1096.394531 1264.058594 C 1095.683594 1265.121094 1094.921875 1266.148438 1094.113281 1267.132812 C 1093.300781 1268.121094 1092.445312 1269.066406 1091.539062 1269.972656 C 1090.636719 1270.875 1089.691406 1271.734375 1088.703125 1272.542969 C 1087.714844 1273.355469 1086.691406 1274.113281 1085.628906 1274.824219 C 1084.566406 1275.535156 1083.46875 1276.191406 1082.34375 1276.792969 C 1081.214844 1277.394531 1080.0625 1277.941406 1078.882812 1278.429688 C 1077.699219 1278.917969 1076.5 1279.347656 1075.277344 1279.71875 C 1074.050781 1280.089844 1072.8125 1280.402344 1071.5625 1280.652344 C 1070.308594 1280.902344 1069.046875 1281.085938 1067.773438 1281.210938 C 1066.5 1281.339844 1065.226562 1281.402344 1063.949219 1281.402344 C 1062.671875 1281.402344 1061.394531 1281.339844 1060.125 1281.210938 C 1058.851562 1281.085938 1057.589844 1280.902344 1056.335938 1280.652344 C 1055.082031 1280.402344 1053.84375 1280.089844 1052.621094 1279.71875 C 1051.398438 1279.347656 1050.195312 1278.917969 1049.015625 1278.429688 C 1047.835938 1277.941406 1046.679688 1277.394531 1045.554688 1276.792969 C 1044.425781 1276.191406 1043.332031 1275.535156 1042.269531 1274.824219 C 1041.207031 1274.113281 1040.179688 1273.355469 1039.195312 1272.542969 C 1038.207031 1271.734375 1037.257812 1270.875 1036.355469 1269.972656 C 1035.453125 1269.066406 1034.59375 1268.121094 1033.785156 1267.132812 C 1032.972656 1266.144531 1032.214844 1265.121094 1031.503906 1264.058594 C 1030.792969 1262.996094 1030.136719 1261.902344 1029.535156 1260.773438 C 1028.933594 1259.648438 1028.386719 1258.492188 1027.898438 1257.3125 C 1027.40625 1256.132812 1026.976562 1254.929688 1026.605469 1253.707031 C 1026.234375 1252.484375 1025.925781 1251.246094 1025.675781 1249.992188 C 1025.425781 1248.738281 1025.238281 1247.476562 1025.113281 1246.203125 C 1024.988281 1244.933594 1024.925781 1243.65625 1024.925781 1242.378906 C 1024.925781 1241.101562 1024.988281 1239.828125 1025.113281 1238.554688 C 1025.238281 1237.28125 1025.425781 1236.019531 1025.675781 1234.765625 C 1025.925781 1233.511719 1026.234375 1232.273438 1026.605469 1231.050781 C 1026.976562 1229.828125 1027.40625 1228.628906 1027.898438 1227.445312 C 1028.386719 1226.265625 1028.933594 1225.113281 1029.535156 1223.984375 C 1030.136719 1222.859375 1030.792969 1221.761719 1031.503906 1220.699219 C 1032.214844 1219.636719 1032.972656 1218.613281 1033.785156 1217.625 C 1034.59375 1216.636719 1035.453125 1215.691406 1036.355469 1214.785156 C 1037.257812 1213.882812 1038.207031 1213.027344 1039.195312 1212.214844 C 1040.179688 1211.40625 1041.207031 1210.644531 1042.269531 1209.933594 C 1043.332031 1209.222656 1044.425781 1208.566406 1045.554688 1207.964844 C 1046.679688 1207.363281 1047.835938 1206.816406 1049.015625 1206.328125 C 1050.195312 1205.839844 1051.398438 1205.410156 1052.621094 1205.039062 C 1053.84375 1204.667969 1055.082031 1204.355469 1056.335938 1204.109375 C 1057.589844 1203.859375 1058.851562 1203.671875 1060.125 1203.546875 C 1061.394531 1203.421875 1062.671875 1203.359375 1063.949219 1203.359375 C 1065.226562 1203.359375 1066.5 1203.421875 1067.773438 1203.546875 C 1069.046875 1203.671875 1070.308594 1203.859375 1071.5625 1204.109375 C 1072.816406 1204.355469 1074.050781 1204.667969 1075.277344 1205.039062 C 1076.5 1205.410156 1077.699219 1205.839844 1078.882812 1206.328125 C 1080.0625 1206.816406 1081.214844 1207.363281 1082.34375 1207.964844 C 1083.46875 1208.566406 1084.566406 1209.222656 1085.628906 1209.933594 C 1086.691406 1210.644531 1087.714844 1211.40625 1088.703125 1212.214844 C 1089.691406 1213.027344 1090.636719 1213.882812 1091.539062 1214.785156 C 1092.445312 1215.691406 1093.300781 1216.636719 1094.113281 1217.625 C 1094.921875 1218.613281 1095.683594 1219.636719 1096.394531 1220.699219 C 1097.101562 1221.761719 1097.757812 1222.859375 1098.363281 1223.984375 C 1098.964844 1225.113281 1099.511719 1226.265625 1100 1227.445312 C 1100.488281 1228.628906 1100.917969 1229.828125 1101.289062 1231.050781 C 1101.660156 1232.273438 1101.96875 1233.511719 1102.21875 1234.765625 C 1102.46875 1236.019531 1102.65625 1237.28125 1102.78125 1238.554688 C 1102.90625 1239.828125 1102.96875 1241.101562 1102.96875 1242.378906 Z M 1102.96875 1242.378906 " fill-opacity="1" fill-rule="nonzero"/><path fill="#9295ff" d="M 772.429688 1162.039062 C 772.429688 1163.394531 772.363281 1164.742188 772.230469 1166.089844 C 772.097656 1167.4375 771.898438 1168.773438 771.636719 1170.101562 C 771.371094 1171.425781 771.042969 1172.738281 770.652344 1174.035156 C 770.257812 1175.328125 769.800781 1176.601562 769.285156 1177.851562 C 768.765625 1179.101562 768.1875 1180.324219 767.550781 1181.515625 C 766.914062 1182.710938 766.21875 1183.871094 765.464844 1184.996094 C 764.714844 1186.121094 763.910156 1187.207031 763.050781 1188.25 C 762.191406 1189.296875 761.285156 1190.300781 760.328125 1191.257812 C 759.371094 1192.214844 758.371094 1193.121094 757.324219 1193.980469 C 756.277344 1194.835938 755.191406 1195.644531 754.066406 1196.394531 C 752.941406 1197.144531 751.78125 1197.839844 750.589844 1198.480469 C 749.394531 1199.117188 748.171875 1199.695312 746.921875 1200.210938 C 745.671875 1200.730469 744.402344 1201.1875 743.105469 1201.578125 C 741.8125 1201.972656 740.5 1202.300781 739.171875 1202.5625 C 737.84375 1202.828125 736.507812 1203.027344 735.160156 1203.160156 C 733.816406 1203.292969 732.464844 1203.359375 731.113281 1203.359375 C 729.757812 1203.359375 728.410156 1203.292969 727.0625 1203.160156 C 725.714844 1203.027344 724.378906 1202.828125 723.050781 1202.5625 C 721.722656 1202.300781 720.414062 1201.972656 719.117188 1201.578125 C 717.824219 1201.1875 716.550781 1200.730469 715.300781 1200.210938 C 714.050781 1199.695312 712.828125 1199.117188 711.632812 1198.480469 C 710.441406 1197.839844 709.28125 1197.144531 708.15625 1196.394531 C 707.03125 1195.644531 705.945312 1194.835938 704.898438 1193.980469 C 703.851562 1193.121094 702.851562 1192.214844 701.894531 1191.257812 C 700.9375 1190.300781 700.03125 1189.296875 699.171875 1188.25 C 698.3125 1187.207031 697.507812 1186.121094 696.757812 1184.996094 C 696.003906 1183.871094 695.308594 1182.710938 694.671875 1181.515625 C 694.035156 1180.324219 693.457031 1179.101562 692.9375 1177.851562 C 692.421875 1176.601562 691.964844 1175.328125 691.574219 1174.035156 C 691.179688 1172.738281 690.851562 1171.425781 690.585938 1170.101562 C 690.324219 1168.773438 690.125 1167.4375 689.992188 1166.089844 C 689.859375 1164.742188 689.792969 1163.394531 689.792969 1162.039062 C 689.792969 1160.6875 689.859375 1159.335938 689.992188 1157.988281 C 690.125 1156.644531 690.324219 1155.304688 690.585938 1153.980469 C 690.851562 1152.652344 691.179688 1151.339844 691.574219 1150.046875 C 691.964844 1148.75 692.421875 1147.476562 692.9375 1146.226562 C 693.457031 1144.976562 694.035156 1143.753906 694.671875 1142.5625 C 695.308594 1141.367188 696.003906 1140.210938 696.757812 1139.085938 C 697.507812 1137.960938 698.3125 1136.875 699.171875 1135.828125 C 700.03125 1134.78125 700.9375 1133.78125 701.894531 1132.824219 C 702.851562 1131.867188 703.851562 1130.957031 704.898438 1130.101562 C 705.945312 1129.242188 707.03125 1128.4375 708.15625 1127.683594 C 709.28125 1126.933594 710.441406 1126.238281 711.632812 1125.601562 C 712.828125 1124.960938 714.050781 1124.382812 715.300781 1123.867188 C 716.550781 1123.347656 717.824219 1122.894531 719.117188 1122.5 C 720.414062 1122.109375 721.722656 1121.78125 723.050781 1121.515625 C 724.378906 1121.25 725.714844 1121.054688 727.0625 1120.921875 C 728.410156 1120.789062 729.757812 1120.722656 731.113281 1120.722656 C 732.464844 1120.722656 733.816406 1120.789062 735.160156 1120.921875 C 736.507812 1121.054688 737.84375 1121.25 739.171875 1121.515625 C 740.5 1121.78125 741.8125 1122.109375 743.105469 1122.5 C 744.402344 1122.894531 745.671875 1123.347656 746.921875 1123.867188 C 748.171875 1124.382812 749.394531 1124.960938 750.589844 1125.601562 C 751.78125 1126.238281 752.941406 1126.933594 754.066406 1127.683594 C 755.191406 1128.4375 756.277344 1129.242188 757.324219 1130.101562 C 758.371094 1130.957031 759.371094 1131.867188 760.328125 1132.824219 C 761.285156 1133.78125 762.191406 1134.78125 763.050781 1135.828125 C 763.910156 1136.875 764.714844 1137.960938 765.464844 1139.085938 C 766.21875 1140.210938 766.914062 1141.367188 767.550781 1142.5625 C 768.1875 1143.753906 768.765625 1144.976562 769.285156 1146.226562 C 769.800781 1147.476562 770.257812 1148.75 770.652344 1150.046875 C 771.042969 1151.339844 771.371094 1152.652344 771.636719 1153.980469 C 771.898438 1155.304688 772.097656 1156.644531 772.230469 1157.988281 C 772.363281 1159.335938 772.429688 1160.6875 772.429688 1162.039062 Z M 772.429688 1162.039062 " fill-opacity="1" fill-rule="nonzero"/><path fill="#9295ff" d="M 542.890625 1028.90625 C 542.890625 1029.660156 542.851562 1030.410156 542.777344 1031.15625 C 542.703125 1031.90625 542.59375 1032.648438 542.449219 1033.386719 C 542.300781 1034.121094 542.117188 1034.851562 541.902344 1035.570312 C 541.683594 1036.289062 541.429688 1036.996094 541.140625 1037.691406 C 540.855469 1038.386719 540.53125 1039.0625 540.179688 1039.726562 C 539.824219 1040.390625 539.4375 1041.035156 539.019531 1041.660156 C 538.601562 1042.285156 538.15625 1042.886719 537.679688 1043.46875 C 537.203125 1044.050781 536.699219 1044.605469 536.167969 1045.136719 C 535.632812 1045.667969 535.078125 1046.171875 534.496094 1046.648438 C 533.917969 1047.125 533.3125 1047.574219 532.6875 1047.992188 C 532.0625 1048.410156 531.417969 1048.796875 530.757812 1049.148438 C 530.09375 1049.503906 529.414062 1049.824219 528.71875 1050.113281 C 528.023438 1050.398438 527.316406 1050.652344 526.597656 1050.871094 C 525.878906 1051.089844 525.152344 1051.273438 524.414062 1051.417969 C 523.675781 1051.566406 522.933594 1051.675781 522.1875 1051.75 C 521.4375 1051.824219 520.6875 1051.859375 519.9375 1051.859375 C 519.183594 1051.859375 518.433594 1051.824219 517.6875 1051.75 C 516.9375 1051.675781 516.195312 1051.566406 515.457031 1051.417969 C 514.722656 1051.273438 513.992188 1051.089844 513.273438 1050.871094 C 512.554688 1050.652344 511.847656 1050.398438 511.152344 1050.113281 C 510.457031 1049.824219 509.777344 1049.503906 509.117188 1049.148438 C 508.453125 1048.796875 507.808594 1048.410156 507.183594 1047.992188 C 506.558594 1047.574219 505.957031 1047.125 505.375 1046.648438 C 504.792969 1046.171875 504.238281 1045.667969 503.707031 1045.136719 C 503.175781 1044.605469 502.671875 1044.050781 502.195312 1043.46875 C 501.714844 1042.886719 501.269531 1042.285156 500.851562 1041.660156 C 500.433594 1041.035156 500.046875 1040.390625 499.695312 1039.726562 C 499.339844 1039.0625 499.019531 1038.386719 498.730469 1037.691406 C 498.441406 1036.996094 498.191406 1036.289062 497.972656 1035.570312 C 497.753906 1034.851562 497.570312 1034.121094 497.425781 1033.382812 C 497.277344 1032.648438 497.167969 1031.90625 497.09375 1031.15625 C 497.019531 1030.410156 496.984375 1029.660156 496.984375 1028.90625 C 496.984375 1028.15625 497.019531 1027.40625 497.09375 1026.65625 C 497.167969 1025.910156 497.277344 1025.167969 497.425781 1024.429688 C 497.570312 1023.691406 497.753906 1022.964844 497.972656 1022.246094 C 498.191406 1021.523438 498.441406 1020.816406 498.730469 1020.125 C 499.019531 1019.429688 499.339844 1018.75 499.695312 1018.085938 C 500.046875 1017.425781 500.433594 1016.78125 500.851562 1016.15625 C 501.269531 1015.53125 501.714844 1014.925781 502.195312 1014.347656 C 502.671875 1013.765625 503.175781 1013.207031 503.707031 1012.675781 C 504.238281 1012.144531 504.792969 1011.640625 505.375 1011.164062 C 505.957031 1010.6875 506.558594 1010.238281 507.183594 1009.824219 C 507.808594 1009.40625 508.453125 1009.019531 509.117188 1008.664062 C 509.777344 1008.308594 510.457031 1007.988281 511.152344 1007.703125 C 511.847656 1007.414062 512.554688 1007.160156 513.273438 1006.941406 C 513.992188 1006.722656 514.722656 1006.542969 515.457031 1006.394531 C 516.195312 1006.25 516.9375 1006.136719 517.6875 1006.066406 C 518.433594 1005.992188 519.183594 1005.953125 519.9375 1005.953125 C 520.6875 1005.953125 521.4375 1005.992188 522.1875 1006.066406 C 522.933594 1006.136719 523.675781 1006.25 524.414062 1006.394531 C 525.152344 1006.542969 525.878906 1006.722656 526.597656 1006.941406 C 527.316406 1007.160156 528.023438 1007.414062 528.71875 1007.703125 C 529.414062 1007.988281 530.09375 1008.308594 530.757812 1008.664062 C 531.417969 1009.019531 532.0625 1009.40625 532.6875 1009.824219 C 533.3125 1010.238281 533.917969 1010.6875 534.496094 1011.164062 C 535.078125 1011.640625 535.632812 1012.144531 536.167969 1012.675781 C 536.699219 1013.207031 537.203125 1013.765625 537.679688 1014.347656 C 538.15625 1014.925781 538.601562 1015.53125 539.019531 1016.15625 C 539.4375 1016.78125 539.824219 1017.425781 540.179688 1018.085938 C 540.53125 1018.75 540.855469 1019.429688 541.140625 1020.125 C 541.429688 1020.816406 541.683594 1021.523438 541.902344 1022.246094 C 542.117188 1022.964844 542.300781 1023.691406 542.449219 1024.429688 C 542.59375 1025.167969 542.703125 1025.910156 542.777344 1026.65625 C 542.851562 1027.40625 542.890625 1028.15625 542.890625 1028.90625 Z M 542.890625 1028.90625 " fill-opacity="1" fill-rule="nonzero"/><path fill="#9295ff" d="M 792.324219 732.03125 C 792.324219 734.085938 792.222656 736.136719 792.019531 738.183594 C 791.820312 740.226562 791.519531 742.257812 791.117188 744.273438 C 790.71875 746.289062 790.21875 748.277344 789.621094 750.246094 C 789.023438 752.210938 788.332031 754.144531 787.546875 756.042969 C 786.761719 757.941406 785.882812 759.796875 784.914062 761.609375 C 783.945312 763.417969 782.890625 765.179688 781.75 766.886719 C 780.609375 768.597656 779.386719 770.246094 778.082031 771.835938 C 776.777344 773.421875 775.398438 774.941406 773.949219 776.394531 C 772.496094 777.847656 770.972656 779.226562 769.386719 780.53125 C 767.796875 781.835938 766.148438 783.058594 764.441406 784.199219 C 762.730469 785.339844 760.972656 786.394531 759.160156 787.363281 C 757.347656 788.332031 755.492188 789.210938 753.59375 789.996094 C 751.695312 790.78125 749.761719 791.472656 747.796875 792.070312 C 745.828125 792.667969 743.839844 793.164062 741.824219 793.566406 C 739.808594 793.96875 737.777344 794.269531 735.734375 794.46875 C 733.6875 794.671875 731.636719 794.773438 729.582031 794.773438 C 727.527344 794.773438 725.480469 794.671875 723.433594 794.46875 C 721.390625 794.269531 719.359375 793.96875 717.34375 793.566406 C 715.328125 793.164062 713.335938 792.667969 711.371094 792.070312 C 709.40625 791.472656 707.472656 790.78125 705.574219 789.996094 C 703.675781 789.210938 701.820312 788.332031 700.007812 787.363281 C 698.195312 786.394531 696.4375 785.339844 694.726562 784.199219 C 693.019531 783.058594 691.371094 781.835938 689.78125 780.53125 C 688.195312 779.226562 686.671875 777.847656 685.21875 776.394531 C 683.765625 774.941406 682.390625 773.421875 681.085938 771.835938 C 679.78125 770.246094 678.558594 768.597656 677.417969 766.886719 C 676.277344 765.179688 675.21875 763.417969 674.253906 761.609375 C 673.285156 759.796875 672.40625 757.941406 671.621094 756.042969 C 670.832031 754.144531 670.140625 752.210938 669.546875 750.246094 C 668.949219 748.277344 668.449219 746.289062 668.050781 744.273438 C 667.648438 742.257812 667.347656 740.226562 667.144531 738.183594 C 666.945312 736.136719 666.84375 734.085938 666.84375 732.03125 C 666.84375 729.976562 666.945312 727.929688 667.144531 725.882812 C 667.347656 723.839844 667.648438 721.808594 668.050781 719.792969 C 668.449219 717.777344 668.949219 715.785156 669.546875 713.820312 C 670.140625 711.855469 670.832031 709.921875 671.621094 708.023438 C 672.40625 706.125 673.285156 704.269531 674.253906 702.457031 C 675.21875 700.644531 676.277344 698.882812 677.417969 697.175781 C 678.558594 695.46875 679.78125 693.820312 681.085938 692.230469 C 682.386719 690.640625 683.765625 689.121094 685.21875 687.667969 C 686.671875 686.214844 688.195312 684.835938 689.78125 683.535156 C 691.371094 682.230469 693.019531 681.007812 694.726562 679.867188 C 696.4375 678.722656 698.195312 677.667969 700.007812 676.699219 C 701.820312 675.730469 703.675781 674.855469 705.574219 674.070312 C 707.472656 673.28125 709.40625 672.589844 711.371094 671.996094 C 713.335938 671.398438 715.328125 670.898438 717.34375 670.5 C 719.359375 670.097656 721.390625 669.796875 723.433594 669.59375 C 725.480469 669.394531 727.527344 669.292969 729.582031 669.292969 C 731.636719 669.292969 733.6875 669.394531 735.734375 669.59375 C 737.777344 669.796875 739.808594 670.097656 741.824219 670.5 C 743.839844 670.898438 745.828125 671.398438 747.796875 671.992188 C 749.761719 672.589844 751.695312 673.28125 753.59375 674.066406 C 755.492188 674.855469 757.347656 675.730469 759.160156 676.699219 C 760.972656 677.667969 762.730469 678.722656 764.441406 679.867188 C 766.148438 681.007812 767.796875 682.230469 769.386719 683.535156 C 770.972656 684.835938 772.496094 686.214844 773.945312 687.667969 C 775.398438 689.121094 776.777344 690.640625 778.082031 692.230469 C 779.386719 693.820312 780.609375 695.46875 781.75 697.175781 C 782.890625 698.882812 783.945312 700.644531 784.914062 702.457031 C 785.882812 704.269531 786.761719 706.125 787.546875 708.023438 C 788.332031 709.921875 789.023438 711.855469 789.621094 713.820312 C 790.21875 715.785156 790.71875 717.777344 791.117188 719.792969 C 791.519531 721.808594 791.820312 723.839844 792.019531 725.882812 C 792.222656 727.929688 792.324219 729.976562 792.324219 732.03125 Z M 792.324219 732.03125 " fill-opacity="1" fill-rule="nonzero"/><path fill="#9295ff" d="M 936.167969 915.667969 C 936.167969 916.820312 936.113281 917.96875 936 919.117188 C 935.886719 920.265625 935.71875 921.402344 935.492188 922.535156 C 935.265625 923.664062 934.988281 924.78125 934.652344 925.882812 C 934.316406 926.988281 933.929688 928.070312 933.488281 929.136719 C 933.046875 930.203125 932.554688 931.242188 932.011719 932.257812 C 931.46875 933.277344 930.878906 934.261719 930.238281 935.222656 C 929.597656 936.179688 928.910156 937.105469 928.179688 937.996094 C 927.449219 938.886719 926.675781 939.742188 925.859375 940.554688 C 925.042969 941.371094 924.191406 942.144531 923.300781 942.875 C 922.410156 943.605469 921.484375 944.292969 920.527344 944.933594 C 919.566406 945.574219 918.578125 946.164062 917.5625 946.707031 C 916.546875 947.25 915.507812 947.742188 914.441406 948.183594 C 913.375 948.625 912.292969 949.015625 911.1875 949.347656 C 910.085938 949.683594 908.96875 949.964844 907.839844 950.1875 C 906.707031 950.414062 905.570312 950.582031 904.421875 950.695312 C 903.273438 950.808594 902.125 950.863281 900.972656 950.863281 C 899.820312 950.863281 898.667969 950.808594 897.523438 950.695312 C 896.375 950.582031 895.234375 950.414062 894.105469 950.1875 C 892.976562 949.964844 891.859375 949.683594 890.753906 949.347656 C 889.652344 949.015625 888.566406 948.625 887.503906 948.183594 C 886.4375 947.742188 885.398438 947.25 884.378906 946.707031 C 883.363281 946.164062 882.375 945.574219 881.417969 944.933594 C 880.460938 944.292969 879.535156 943.605469 878.644531 942.875 C 877.753906 942.144531 876.898438 941.371094 876.085938 940.554688 C 875.269531 939.742188 874.496094 938.886719 873.765625 937.996094 C 873.035156 937.105469 872.347656 936.179688 871.707031 935.222656 C 871.066406 934.261719 870.476562 933.277344 869.929688 932.257812 C 869.386719 931.242188 868.894531 930.203125 868.453125 929.136719 C 868.011719 928.070312 867.625 926.988281 867.292969 925.886719 C 866.957031 924.78125 866.675781 923.664062 866.453125 922.535156 C 866.226562 921.402344 866.058594 920.265625 865.945312 919.117188 C 865.832031 917.96875 865.777344 916.820312 865.777344 915.667969 C 865.777344 914.515625 865.832031 913.363281 865.945312 912.21875 C 866.058594 911.070312 866.226562 909.933594 866.453125 908.800781 C 866.675781 907.671875 866.957031 906.554688 867.292969 905.449219 C 867.625 904.347656 868.011719 903.261719 868.453125 902.199219 C 868.894531 901.132812 869.386719 900.09375 869.929688 899.078125 C 870.476562 898.058594 871.066406 897.070312 871.707031 896.113281 C 872.347656 895.15625 873.035156 894.230469 873.765625 893.339844 C 874.496094 892.449219 875.269531 891.59375 876.085938 890.78125 C 876.898438 889.964844 877.753906 889.191406 878.644531 888.460938 C 879.535156 887.730469 880.460938 887.042969 881.417969 886.402344 C 882.375 885.761719 883.363281 885.171875 884.378906 884.628906 C 885.398438 884.082031 886.4375 883.589844 887.503906 883.148438 C 888.566406 882.710938 889.652344 882.320312 890.753906 881.988281 C 891.859375 881.652344 892.976562 881.371094 894.105469 881.148438 C 895.234375 880.921875 896.375 880.753906 897.523438 880.640625 C 898.667969 880.527344 899.820312 880.472656 900.972656 880.472656 C 902.125 880.472656 903.273438 880.527344 904.421875 880.640625 C 905.570312 880.753906 906.707031 880.921875 907.839844 881.148438 C 908.96875 881.371094 910.085938 881.652344 911.1875 881.988281 C 912.292969 882.320312 913.375 882.710938 914.441406 883.152344 C 915.507812 883.589844 916.546875 884.082031 917.5625 884.628906 C 918.582031 885.171875 919.566406 885.761719 920.527344 886.402344 C 921.484375 887.042969 922.410156 887.730469 923.300781 888.460938 C 924.191406 889.191406 925.042969 889.964844 925.859375 890.78125 C 926.675781 891.59375 927.449219 892.449219 928.179688 893.339844 C 928.910156 894.230469 929.597656 895.15625 930.238281 896.113281 C 930.878906 897.070312 931.46875 898.058594 932.011719 899.078125 C 932.554688 900.09375 933.046875 901.132812 933.488281 902.199219 C 933.929688 903.261719 934.316406 904.347656 934.652344 905.449219 C 934.988281 906.554688 935.265625 907.671875 935.492188 908.800781 C 935.71875 909.933594 935.886719 911.070312 936 912.21875 C 936.113281 913.363281 936.167969 914.515625 936.167969 915.667969 Z M 936.167969 915.667969 " fill-opacity="1" fill-rule="nonzero"/><path fill="#9295ff" d="M 718.871094 335.695312 C 718.871094 336.394531 718.835938 337.09375 718.769531 337.792969 C 718.699219 338.492188 718.597656 339.183594 718.460938 339.875 C 718.324219 340.5625 718.152344 341.242188 717.949219 341.914062 C 717.746094 342.585938 717.507812 343.246094 717.242188 343.890625 C 716.972656 344.539062 716.671875 345.175781 716.339844 345.792969 C 716.011719 346.410156 715.648438 347.011719 715.261719 347.597656 C 714.871094 348.179688 714.453125 348.742188 714.007812 349.285156 C 713.5625 349.828125 713.09375 350.347656 712.597656 350.84375 C 712.101562 351.339844 711.582031 351.808594 711.039062 352.253906 C 710.496094 352.699219 709.933594 353.117188 709.347656 353.507812 C 708.765625 353.898438 708.164062 354.257812 707.546875 354.589844 C 706.925781 354.917969 706.292969 355.21875 705.644531 355.488281 C 704.996094 355.757812 704.335938 355.992188 703.664062 356.195312 C 702.996094 356.398438 702.3125 356.570312 701.625 356.707031 C 700.9375 356.84375 700.246094 356.945312 699.546875 357.015625 C 698.847656 357.085938 698.148438 357.117188 697.445312 357.117188 C 696.746094 357.117188 696.042969 357.085938 695.347656 357.015625 C 694.648438 356.945312 693.953125 356.84375 693.265625 356.707031 C 692.578125 356.570312 691.898438 356.398438 691.226562 356.195312 C 690.554688 355.992188 689.894531 355.757812 689.246094 355.488281 C 688.597656 355.21875 687.964844 354.917969 687.347656 354.589844 C 686.726562 354.257812 686.125 353.898438 685.542969 353.507812 C 684.960938 353.117188 684.398438 352.699219 683.855469 352.253906 C 683.3125 351.808594 682.792969 351.339844 682.296875 350.84375 C 681.800781 350.347656 681.328125 349.828125 680.882812 349.285156 C 680.441406 348.742188 680.023438 348.179688 679.632812 347.597656 C 679.242188 347.011719 678.882812 346.410156 678.550781 345.792969 C 678.21875 345.175781 677.921875 344.539062 677.652344 343.890625 C 677.382812 343.246094 677.148438 342.585938 676.945312 341.914062 C 676.742188 341.242188 676.570312 340.5625 676.433594 339.875 C 676.296875 339.183594 676.195312 338.492188 676.125 337.792969 C 676.054688 337.09375 676.023438 336.394531 676.023438 335.695312 C 676.023438 334.992188 676.054688 334.292969 676.125 333.59375 C 676.195312 332.894531 676.296875 332.203125 676.433594 331.515625 C 676.570312 330.824219 676.742188 330.144531 676.945312 329.472656 C 677.148438 328.804688 677.382812 328.144531 677.652344 327.496094 C 677.921875 326.847656 678.21875 326.210938 678.550781 325.59375 C 678.882812 324.976562 679.242188 324.375 679.632812 323.789062 C 680.023438 323.207031 680.441406 322.644531 680.886719 322.101562 C 681.328125 321.558594 681.800781 321.039062 682.296875 320.542969 C 682.792969 320.046875 683.3125 319.578125 683.855469 319.132812 C 684.398438 318.6875 684.960938 318.269531 685.542969 317.878906 C 686.125 317.488281 686.726562 317.128906 687.347656 316.796875 C 687.964844 316.46875 688.597656 316.167969 689.246094 315.898438 C 689.894531 315.632812 690.554688 315.394531 691.226562 315.191406 C 691.898438 314.988281 692.578125 314.816406 693.265625 314.679688 C 693.953125 314.542969 694.648438 314.441406 695.347656 314.371094 C 696.042969 314.304688 696.746094 314.269531 697.445312 314.269531 C 698.148438 314.269531 698.847656 314.304688 699.546875 314.371094 C 700.246094 314.441406 700.9375 314.542969 701.625 314.679688 C 702.3125 314.816406 702.996094 314.988281 703.664062 315.191406 C 704.335938 315.394531 704.996094 315.632812 705.644531 315.898438 C 706.292969 316.167969 706.925781 316.46875 707.546875 316.796875 C 708.164062 317.128906 708.765625 317.488281 709.347656 317.878906 C 709.933594 318.269531 710.496094 318.6875 711.039062 319.132812 C 711.582031 319.578125 712.101562 320.046875 712.597656 320.542969 C 713.09375 321.039062 713.5625 321.558594 714.007812 322.101562 C 714.453125 322.644531 714.871094 323.207031 715.261719 323.789062 C 715.648438 324.375 716.011719 324.976562 716.339844 325.59375 C 716.671875 326.210938 716.972656 326.847656 717.242188 327.496094 C 717.507812 328.144531 717.746094 328.804688 717.949219 329.472656 C 718.152344 330.144531 718.324219 330.824219 718.460938 331.515625 C 718.597656 332.203125 718.699219 332.894531 718.769531 333.59375 C 718.835938 334.292969 718.871094 334.992188 718.871094 335.695312 Z M 718.871094 335.695312 " fill-opacity="1" fill-rule="nonzero"/><path fill="#9295ff" d="M 835.171875 283.664062 C 835.171875 284.664062 835.125 285.664062 835.027344 286.664062 C 834.925781 287.660156 834.78125 288.652344 834.585938 289.632812 C 834.390625 290.617188 834.144531 291.589844 833.855469 292.546875 C 833.5625 293.507812 833.226562 294.449219 832.84375 295.375 C 832.460938 296.300781 832.03125 297.207031 831.558594 298.089844 C 831.085938 298.972656 830.570312 299.832031 830.015625 300.667969 C 829.457031 301.5 828.863281 302.304688 828.226562 303.078125 C 827.589844 303.855469 826.917969 304.59375 826.207031 305.304688 C 825.5 306.011719 824.757812 306.6875 823.984375 307.320312 C 823.207031 307.957031 822.402344 308.554688 821.570312 309.109375 C 820.738281 309.667969 819.878906 310.183594 818.996094 310.65625 C 818.109375 311.128906 817.207031 311.554688 816.28125 311.9375 C 815.351562 312.324219 814.410156 312.660156 813.453125 312.949219 C 812.492188 313.242188 811.519531 313.484375 810.539062 313.679688 C 809.554688 313.875 808.566406 314.023438 807.566406 314.121094 C 806.570312 314.21875 805.570312 314.269531 804.566406 314.269531 C 803.566406 314.269531 802.566406 314.21875 801.566406 314.121094 C 800.570312 314.023438 799.578125 313.875 798.597656 313.679688 C 797.613281 313.484375 796.640625 313.242188 795.683594 312.949219 C 794.722656 312.660156 793.78125 312.324219 792.855469 311.9375 C 791.929688 311.554688 791.023438 311.128906 790.140625 310.65625 C 789.253906 310.183594 788.398438 309.667969 787.5625 309.109375 C 786.730469 308.554688 785.925781 307.957031 785.152344 307.320312 C 784.375 306.6875 783.632812 306.011719 782.925781 305.304688 C 782.214844 304.59375 781.542969 303.855469 780.910156 303.078125 C 780.273438 302.304688 779.675781 301.5 779.121094 300.667969 C 778.5625 299.832031 778.046875 298.972656 777.574219 298.089844 C 777.101562 297.207031 776.675781 296.300781 776.289062 295.375 C 775.90625 294.449219 775.570312 293.507812 775.277344 292.546875 C 774.988281 291.589844 774.746094 290.617188 774.550781 289.632812 C 774.355469 288.652344 774.207031 287.660156 774.109375 286.664062 C 774.011719 285.664062 773.960938 284.664062 773.960938 283.664062 C 773.960938 282.660156 774.011719 281.660156 774.109375 280.664062 C 774.207031 279.664062 774.355469 278.675781 774.550781 277.691406 C 774.746094 276.707031 774.988281 275.738281 775.277344 274.777344 C 775.570312 273.820312 775.90625 272.875 776.289062 271.949219 C 776.675781 271.023438 777.101562 270.121094 777.574219 269.234375 C 778.046875 268.351562 778.5625 267.492188 779.121094 266.660156 C 779.675781 265.824219 780.273438 265.023438 780.910156 264.246094 C 781.542969 263.472656 782.214844 262.730469 782.925781 262.019531 C 783.632812 261.3125 784.375 260.640625 785.152344 260.003906 C 785.925781 259.367188 786.730469 258.773438 787.5625 258.214844 C 788.398438 257.65625 789.253906 257.144531 790.140625 256.671875 C 791.023438 256.199219 791.929688 255.769531 792.855469 255.386719 C 793.78125 255.003906 794.722656 254.664062 795.683594 254.375 C 796.640625 254.082031 797.613281 253.839844 798.597656 253.644531 C 799.578125 253.449219 800.570312 253.300781 801.566406 253.203125 C 802.566406 253.105469 803.566406 253.058594 804.566406 253.058594 C 805.570312 253.058594 806.570312 253.105469 807.566406 253.203125 C 808.566406 253.300781 809.554688 253.449219 810.539062 253.644531 C 811.519531 253.839844 812.492188 254.082031 813.453125 254.375 C 814.410156 254.664062 815.351562 255.003906 816.28125 255.386719 C 817.207031 255.769531 818.109375 256.199219 818.996094 256.671875 C 819.878906 257.144531 820.738281 257.65625 821.570312 258.214844 C 822.402344 258.773438 823.207031 259.367188 823.984375 260.003906 C 824.757812 260.640625 825.5 261.3125 826.207031 262.019531 C 826.917969 262.730469 827.589844 263.472656 828.226562 264.246094 C 828.863281 265.023438 829.457031 265.824219 830.015625 266.660156 C 830.570312 267.492188 831.085938 268.351562 831.558594 269.234375 C 832.03125 270.121094 832.460938 271.023438 832.84375 271.949219 C 833.226562 272.875 833.5625 273.820312 833.855469 274.777344 C 834.144531 275.738281 834.390625 276.707031 834.585938 277.691406 C 834.78125 278.675781 834.925781 279.664062 835.027344 280.664062 C 835.125 281.660156 835.171875 282.660156 835.171875 283.664062 Z M 835.171875 283.664062 " fill-opacity="1" fill-rule="nonzero"/><path fill="#9295ff" d="M 666.839844 568.292969 C 666.839844 568.894531 666.8125 569.496094 666.753906 570.09375 C 666.691406 570.691406 666.605469 571.285156 666.488281 571.875 C 666.371094 572.464844 666.222656 573.046875 666.050781 573.625 C 665.875 574.199219 665.671875 574.765625 665.441406 575.320312 C 665.210938 575.875 664.957031 576.417969 664.671875 576.949219 C 664.390625 577.480469 664.078125 577.996094 663.746094 578.496094 C 663.410156 578.996094 663.054688 579.476562 662.671875 579.941406 C 662.289062 580.40625 661.886719 580.851562 661.460938 581.277344 C 661.035156 581.703125 660.59375 582.105469 660.128906 582.488281 C 659.664062 582.871094 659.179688 583.226562 658.679688 583.5625 C 658.179688 583.894531 657.664062 584.203125 657.132812 584.488281 C 656.605469 584.769531 656.0625 585.027344 655.503906 585.257812 C 654.949219 585.488281 654.382812 585.691406 653.808594 585.867188 C 653.234375 586.039062 652.652344 586.1875 652.0625 586.304688 C 651.472656 586.421875 650.875 586.507812 650.277344 586.566406 C 649.679688 586.625 649.078125 586.65625 648.476562 586.65625 C 647.875 586.65625 647.277344 586.625 646.679688 586.566406 C 646.078125 586.507812 645.484375 586.421875 644.894531 586.304688 C 644.304688 586.1875 643.722656 586.039062 643.148438 585.867188 C 642.574219 585.691406 642.007812 585.488281 641.453125 585.257812 C 640.894531 585.027344 640.351562 584.769531 639.824219 584.488281 C 639.292969 584.203125 638.777344 583.894531 638.277344 583.5625 C 637.777344 583.226562 637.292969 582.871094 636.828125 582.488281 C 636.363281 582.105469 635.917969 581.703125 635.496094 581.277344 C 635.070312 580.851562 634.664062 580.40625 634.285156 579.941406 C 633.902344 579.476562 633.542969 578.996094 633.210938 578.496094 C 632.875 577.996094 632.566406 577.480469 632.285156 576.949219 C 632 576.417969 631.742188 575.875 631.515625 575.320312 C 631.285156 574.765625 631.082031 574.199219 630.90625 573.625 C 630.730469 573.046875 630.585938 572.464844 630.46875 571.875 C 630.351562 571.285156 630.261719 570.691406 630.203125 570.09375 C 630.144531 569.496094 630.117188 568.894531 630.117188 568.292969 C 630.117188 567.691406 630.144531 567.09375 630.203125 566.492188 C 630.261719 565.894531 630.351562 565.300781 630.46875 564.710938 C 630.585938 564.121094 630.730469 563.539062 630.90625 562.964844 C 631.082031 562.386719 631.285156 561.824219 631.515625 561.265625 C 631.742188 560.710938 632 560.167969 632.285156 559.636719 C 632.566406 559.109375 632.875 558.59375 633.210938 558.09375 C 633.542969 557.59375 633.902344 557.109375 634.285156 556.644531 C 634.664062 556.179688 635.070312 555.734375 635.496094 555.308594 C 635.917969 554.882812 636.363281 554.480469 636.828125 554.097656 C 637.292969 553.71875 637.777344 553.359375 638.277344 553.027344 C 638.777344 552.691406 639.292969 552.382812 639.824219 552.101562 C 640.351562 551.816406 640.894531 551.558594 641.453125 551.328125 C 642.007812 551.097656 642.574219 550.898438 643.148438 550.722656 C 643.722656 550.546875 644.304688 550.402344 644.894531 550.285156 C 645.484375 550.167969 646.078125 550.078125 646.679688 550.019531 C 647.277344 549.960938 647.875 549.933594 648.476562 549.929688 C 649.078125 549.933594 649.679688 549.960938 650.277344 550.019531 C 650.875 550.078125 651.472656 550.167969 652.0625 550.285156 C 652.652344 550.402344 653.234375 550.546875 653.808594 550.722656 C 654.382812 550.898438 654.949219 551.097656 655.503906 551.328125 C 656.0625 551.558594 656.605469 551.816406 657.132812 552.101562 C 657.664062 552.382812 658.179688 552.691406 658.679688 553.027344 C 659.179688 553.359375 659.664062 553.71875 660.128906 554.101562 C 660.59375 554.480469 661.035156 554.882812 661.460938 555.308594 C 661.886719 555.734375 662.289062 556.179688 662.671875 556.644531 C 663.054688 557.109375 663.410156 557.59375 663.746094 558.09375 C 664.078125 558.59375 664.390625 559.109375 664.671875 559.636719 C 664.957031 560.167969 665.210938 560.710938 665.441406 561.265625 C 665.671875 561.824219 665.875 562.386719 666.050781 562.964844 C 666.222656 563.539062 666.371094 564.121094 666.488281 564.710938 C 666.605469 565.300781 666.691406 565.894531 666.753906 566.492188 C 666.8125 567.09375 666.839844 567.691406 666.839844 568.292969 Z M 666.839844 568.292969 " fill-opacity="1" fill-rule="nonzero"/><g clip-path="url(#5840164f0a)"><g clip-path="url(#f246e61c7c)"><g transform="matrix(1, 0, 0, 1, 485, 1100)"><g clip-path="url(#4171284998)"><g clip-path="url(#e9aac3deeb)"><g clip-path="url(#ba0a7e2325)"><path fill="#9295ff" d="M 0.527344 0.1875 L 146.015625 0.1875 L 146.015625 145.675781 L 0.527344 145.675781 Z M 0.527344 0.1875 " fill-opacity="1" fill-rule="nonzero"/></g></g></g></g></g></g></svg>